<svg viewBox="0 0 1400 1100" xmlns="http://www.w3.org/2000/svg">
  <defs>
    <style>
      .title { font-size: 28px; font-weight: bold; fill: #1a1a1a; }
      .section-title { font-size: 16px; font-weight: bold; fill: #1a1a1a; }
      .label { font-size: 12px; fill: #333; }
      .small-label { font-size: 10px; fill: #666; }
      .box { stroke-width: 2; }
    </style>
  </defs>

  <rect width="1400" height="1100" fill="#f8f9fa"/>

  <!-- Title Section -->
  <text x="700" y="45" class="title" text-anchor="middle">Docker Compose Service Hierarchy</text>
  <text x="700" y="75" font-size="14" text-anchor="middle" fill="#666">
    log-analysis-ai-usecase-app (Parent) → Orchestrates ByteBite Lab Services
  </text>

  <!-- Parent Service Container -->
  <g>
    <rect x="400" y="110" width="600" height="180" rx="8" fill="#e8f5e9" stroke="#22c55e" stroke-width="2"/>

    <!-- Parent icon - Docker container -->
    <rect x="425" y="130" width="50" height="50" rx="4" fill="#22c55e"/>
    <text x="450" y="162" font-size="24" text-anchor="middle" fill="#fff" font-weight="bold">D</text>

    <!-- Parent info -->
    <text x="500" y="145" font-size="16" font-weight="bold" fill="#1a1a1a">log-analysis-ai-usecase-app</text>
    <text x="500" y="165" font-size="11" fill="#333">Parent Orchestrator Service</text>
    <text x="500" y="182" font-size="10" fill="#666">Python 3.11 + FastAPI</text>
    <text x="500" y="198" font-size="10" fill="#666">Status: Running | CPU: 2.11% | Memory: 383.48MB</text>
    <text x="500" y="214" font-size="10" fill="#666">Coordinates all dependent services</text>
    <text x="500" y="237" font-size="9" fill="#999" font-style="italic">Depends On: All below services</text>
  </g>

  <!-- Dependency arrows from parent -->
  <line x1="550" y1="290" x2="550" y2="350" stroke="#22c55e" stroke-width="2"/>
  <line x1="700" y1="290" x2="700" y2="350" stroke="#22c55e" stroke-width="2"/>
  <line x1="850" y1="290" x2="850" y2="350" stroke="#22c55e" stroke-width="2"/>

  <!-- SERVICE 1: Tomcat (left) -->
  <g>
    <rect x="350" y="350" width="400" height="200" rx="8" fill="#e3f2fd" stroke="#1976d2" stroke-width="2"/>

    <!-- Service icon -->
    <rect x="370" y="370" width="50" height="50" rx="4" fill="#1976d2"/>
    <text x="395" y="402" font-size="20" text-anchor="middle" fill="#fff" font-weight="bold">T</text>

    <text x="430" y="387" font-size="14" font-weight="bold" fill="#1a1a1a">bytebite-tomcat</text>
    <text x="430" y="405" font-size="11" fill="#666">Apache Tomcat 11</text>

   
    <text x="370" y="442" font-size="9" fill="#333">Container ID: d67b794a1935</text>
    <text x="370" y="458" font-size="9" fill="#333">Port: 8009:8009 (3 ports)</text>
    <text x="370" y="474" font-size="9" fill="#333">CPU: 2.11% | Memory: 312.6MB</text>
    <text x="370" y="490" font-size="9" fill="#333">JDK 21 | 6 Servlets | 4 Filters</text>
    <text x="370" y="506" font-size="9" fill="#333">Network: bytebite-net</text>

     <text x="370" y="535" font-size="8" fill="#666" font-weight="bold">Service: troubleshooting-lab</text>
  </g>

  <!-- SERVICE 2: PostgreSQL (center) -->
  <g>
    <rect x="550" y="350" width="400" height="200" rx="8" fill="#f3e5f5" stroke="#7b1fa2" stroke-width="2"/>

    <!-- Service icon -->
    <rect x="570" y="370" width="50" height="50" rx="4" fill="#7b1fa2"/>
    <text x="595" y="402" font-size="16" text-anchor="middle" fill="#fff" font-weight="bold">DB</text>

    <text x="630" y="387" font-size="14" font-weight="bold" fill="#1a1a1a">bytebite-postgres</text>
    <text x="630" y="405" font-size="11" fill="#666">PostgreSQL 15-alpine</text>

    <text x="570" y="442" font-size="9" fill="#333">Container ID: 59251f622aae</text>
    <text x="570" y="458" font-size="9" fill="#333">Port: 5432:5432</text>
    <text x="570" y="474" font-size="9" fill="#333">CPU: 0% | Memory: 47.29MB</text>
    <text x="570" y="490" font-size="9" fill="#333">11 Tables | HikariCP Pool (max 20)</text>
    <text x="570" y="506" font-size="9" fill="#333">Network: bytebite-net</text>

     <text x="570" y="535" font-size="8" fill="#666" font-weight="bold">Service: database-backend</text>
  </g>

  <!-- SERVICE 3: OpenLDAP (right) -->
  <g>
    <rect x="750" y="350" width="400" height="200" rx="8" fill="#ffebee" stroke="#d32f2f" stroke-width="2"/>

    <!-- Service icon -->
    <rect x="770" y="370" width="50" height="50" rx="4" fill="#d32f2f"/>
    <text x="795" y="402" font-size="14" text-anchor="middle" fill="#fff" font-weight="bold">LDAP</text>

    <text x="830" y="387" font-size="14" font-weight="bold" fill="#1a1a1a">bytebite-openldap</text>
    <text x="830" y="405" font-size="11" fill="#666">OpenLDAP 1.5.0</text>

 
    <text x="770" y="442" font-size="9" fill="#333">Container ID: 6dc8272348a5</text>
    <text x="770" y="458" font-size="9" fill="#333">Port: 389:389</text>
    <text x="770" y="474" font-size="9" fill="#333">CPU: 0% | Memory: 23.59MB</text>
    <text x="770" y="490" font-size="9" fill="#333">Base DN: dc=bytebite,dc=local</text>
    <text x="770" y="506" font-size="9" fill="#333">Network: bytebite-net</text>

    <text x="770" y="535" font-size="8" fill="#666" font-weight="bold">Service: auth-directory</text>
  </g>

  <!-- Child Service Relationship Section -->
  <text x="700" y="610" class="section-title" text-anchor="middle">Service Dependencies and Network Configuration</text>

  <!-- Dependency table -->
  <g>
    <!-- Table header -->
    <rect x="50" y="630" width="1300" height="35" fill="#e0e0e0" stroke="#1976d2" stroke-width="2"/>
    <text x="70" y="654" font-size="11" font-weight="bold" fill="#1a1a1a">Parent Service</text>
    <text x="350" y="654" font-size="11" font-weight="bold" fill="#1a1a1a">Child Service</text>
    <text x="700" y="654" font-size="11" font-weight="bold" fill="#1a1a1a">Connection Type</text>
    <text x="1050" y="654" font-size="11" font-weight="bold" fill="#1a1a1a">Status</text>

    <!-- Row 1: Tomcat -->
    <rect x="50" y="665" width="1300" height="40" fill="#f5f5f5" stroke="#ccc" stroke-width="1"/>
    <text x="70" y="688" font-size="10" fill="#333">log-analysis-ai-usecase-app</text>
    <text x="350" y="688" font-size="10" fill="#333">bytebite-tomcat</text>
    <text x="700" y="688" font-size="10" fill="#333">depends_on: [service_healthy]</text>
    <circle cx="1070" cy="685" r="4" fill="#10b981"/>
    <text x="1090" y="688" font-size="10" fill="#333">Running</text>

    <!-- Row 2: PostgreSQL -->
    <rect x="50" y="705" width="1300" height="40" fill="#fff" stroke="#ccc" stroke-width="1"/>
    <text x="70" y="728" font-size="10" fill="#333">log-analysis-ai-usecase-app</text>
    <text x="350" y="728" font-size="10" fill="#333">bytebite-postgres</text>
    <text x="700" y="728" font-size="10" fill="#333">depends_on: [service_healthy]</text>
    <circle cx="1070" cy="725" r="4" fill="#10b981"/>
    <text x="1090" y="728" font-size="10" fill="#333">Running</text>

    <!-- Row 3: OpenLDAP -->
    <rect x="50" y="745" width="1300" height="40" fill="#f5f5f5" stroke="#ccc" stroke-width="1"/>
    <text x="70" y="768" font-size="10" fill="#333">log-analysis-ai-usecase-app</text>
    <text x="350" y="768" font-size="10" fill="#333">bytebite-openldap</text>
    <text x="700" y="768" font-size="10" fill="#333">depends_on: [service_healthy]</text>
    <circle cx="1070" cy="765" r="4" fill="#10b981"/>
    <text x="1090" y="768" font-size="10" fill="#333">Running</text>
  </g>

  <!-- Network Configuration -->
  <g>
    <text x="70" y="810" font-size="11" font-weight="bold" fill="#1a1a1a">Network Configuration:</text>
    <text x="70" y="830" font-size="10" fill="#333">• Primary Network: bytebite-net (bridge)</text>
    <text x="500" y="830" font-size="10" fill="#333">• All services connected for inter-service communication</text>
    <text x="70" y="850" font-size="9" fill="#999" font-style="italic">Configuration: docker-compose.yml | Parent container orchestrates all ByteBite lab services</text>
  </g>

  <!-- Legend -->
  <g>
    <text x="70" y="885" font-size="11" font-weight="bold" fill="#1a1a1a">Legend:</text>
    <circle cx="85" cy="905" r="3" fill="#22c55e"/>
    <text x="100" y="908" font-size="10" fill="#333">Active service</text>
    <rect x="280" y="898" width="12" height="12" rx="2" fill="#1976d2"/>
    <text x="300" y="908" font-size="10" fill="#333">Tomcat service</text>
    <rect x="520" y="898" width="12" height="12" rx="2" fill="#7b1fa2"/>
    <text x="540" y="908" font-size="10" fill="#333">Database service</text>
    <rect x="760" y="898" width="12" height="12" rx="2" fill="#d32f2f"/>
    <text x="780" y="908" font-size="10" fill="#333">LDAP auth service</text>
  </g>
</svg>